<svg width="32" height="32" viewBox="0 0 32 32" fill="none" xmlns="http://www.w3.org/2000/svg">
  <!-- Bag body -->
  <path d="M7 14C7 13 8 12 9 12H23C24 12 25 13 25 14V26C25 27.5 23.5 29 22 29H10C8.5 29 7 27.5 7 26V14Z" stroke="#907aa9" stroke-width="2" fill="none"/>
  <!-- Bag tie / knot -->
  <path d="M12 12C12 12 12 8 16 8C20 8 20 12 20 12" stroke="#907aa9" stroke-width="2" stroke-linecap="round" fill="none"/>
  <!-- Bag top gather -->
  <path d="M14 8C14 8 15 5 16 4C17 5 18 8 18 8" stroke="#907aa9" stroke-width="2" stroke-linecap="round" stroke-linejoin="round" fill="none"/>
  <!-- Dollar sign -->
  <path d="M16 16V24" stroke="#907aa9" stroke-width="1.5" stroke-linecap="round"/>
  <path d="M13 18.5C13 17 14.2 16 16 16C17.8 16 19 17 19 18.2C19 19.5 17.8 20 16 20C14.2 20 13 20.8 13 22C13 23.2 14.2 24 16 24C17.8 24 19 23 19 21.5" stroke="#907aa9" stroke-width="1.5" stroke-linecap="round" fill="none"/>
</svg>
